<?xml version="1.0" standalone="no"?>
<!DOCTYPE svg PUBLIC "-//W3C//DTD SVG 20010904//EN"
 "http://www.w3.org/TR/2001/REC-SVG-20010904/DTD/svg10.dtd">
<svg version="1.0" xmlns="http://www.w3.org/2000/svg"
 width="512.000000pt" height="512.000000pt" viewBox="0 0 512.000000 512.000000"
 preserveAspectRatio="xMidYMid meet">
<metadata>
Created by potrace 1.11, written by Peter Selinger 2001-2013
</metadata>
<g transform="translate(0.000000,512.000000) scale(0.100000,-0.100000)"
fill="#000000" stroke="none">
<path d="M3455 5005 c-184 -195 -213 -225 -359 -378 -133 -139 -157 -174 -170
-240 -9 -45 -98 -382 -102 -387 -3 -2 -64 -5 -137 -6 -277 -4 -560 -15 -732
-29 -113 -9 -157 -14 -265 -30 -155 -24 -234 -51 -274 -91 -22 -21 -7 -40 50
-65 110 -49 296 -77 709 -105 63 -4 706 -4 760 0 22 2 90 6 150 10 61 4 121 9
135 11 14 2 52 6 85 10 33 3 71 8 85 10 14 3 41 7 60 10 128 21 238 58 255 85
36 59 -120 108 -490 154 -22 3 -68 5 -102 6 -53 0 -63 3 -63 18 0 9 20 100 45
202 53 213 17 158 285 441 80 84 152 160 160 168 8 9 52 58 97 110 82 92 82
93 68 121 -19 37 -73 78 -111 85 -27 5 -38 -4 -139 -110z"/>
<path d="M1425 3698 c2 -18 7 -64 10 -103 10 -122 16 -173 30 -295 3 -19 7
-60 9 -90 3 -30 7 -71 10 -90 3 -19 8 -62 11 -95 3 -33 8 -82 11 -110 3 -27 7
-66 8 -85 2 -19 7 -55 10 -80 3 -25 11 -89 17 -142 6 -54 15 -96 19 -93 4 2
15 26 25 52 73 196 233 401 360 459 64 30 137 32 183 4 59 -36 101 -86 112
-134 6 -28 4 -39 -12 -55 -10 -12 -21 -21 -24 -21 -17 0 -46 25 -60 52 -55
106 -142 103 -244 -9 -53 -58 -160 -223 -160 -247 0 -8 -4 -17 -9 -21 -8 -5
-49 -115 -52 -140 -1 -5 -5 -20 -10 -33 -15 -39 -20 -144 -9 -178 19 -58 69
-61 141 -8 95 69 178 176 214 274 48 130 54 140 91 140 51 0 45 -66 -22 -273
-31 -94 -67 -210 -81 -257 -32 -109 -61 -177 -79 -184 -8 -3 -23 3 -34 14 -22
22 -21 33 21 179 17 57 28 105 26 107 -2 2 -32 -21 -67 -51 -101 -87 -171
-116 -255 -103 -15 2 -19 -3 -18 -27 0 -38 14 -184 28 -320 4 -33 8 -76 10
-95 4 -53 31 -282 39 -334 1 -10 11 -25 22 -33 35 -26 256 -87 393 -109 18 -3
43 -8 55 -10 116 -23 695 -23 816 1 14 2 36 7 50 10 14 2 39 7 55 10 135 23
307 74 336 101 20 18 34 60 44 134 3 25 8 56 10 70 2 14 6 50 10 80 3 30 7 71
10 90 2 19 7 60 10 90 3 30 10 89 15 130 5 41 12 104 15 140 3 35 8 78 10 95
2 16 7 51 10 78 4 26 2 47 -3 47 -10 0 -52 -31 -92 -68 -44 -40 -125 -74 -177
-74 -39 0 -52 5 -70 26 -18 22 -20 31 -12 58 9 33 62 115 97 154 39 41 82 108
82 126 0 51 -117 -11 -183 -97 -21 -27 -54 -80 -73 -118 -34 -66 -132 -298
-139 -327 -8 -36 -46 -107 -67 -127 -25 -23 -50 -23 -73 0 -14 14 -13 22 6 74
24 66 44 111 101 232 21 46 37 87 36 92 -2 5 -33 -12 -69 -37 -78 -54 -142
-68 -184 -40 -14 9 -25 23 -25 31 0 10 -15 6 -57 -16 -101 -51 -153 -32 -153
55 l0 39 -50 -47 c-58 -54 -109 -79 -162 -78 -100 2 -115 73 -52 253 61 175
114 256 152 233 28 -18 25 -49 -12 -133 -20 -43 -43 -98 -51 -121 -17 -49 -20
-109 -5 -111 6 -1 16 -2 23 -3 23 -4 65 23 108 72 42 47 80 113 133 235 27 62
49 78 73 54 23 -23 19 -55 -17 -148 -41 -106 -55 -156 -55 -194 0 -37 26 -41
83 -13 37 19 41 27 97 172 61 161 164 410 214 520 24 54 34 66 53 66 29 0 48
-17 48 -43 0 -10 -38 -109 -83 -220 -133 -320 -187 -464 -187 -499 0 -19 46
-5 98 31 116 79 146 113 187 211 39 95 62 118 96 97 12 -7 15 -20 12 -44 -3
-18 -2 -33 0 -33 3 0 25 16 49 36 49 42 112 73 147 74 13 0 39 -9 57 -21 28
-17 34 -27 34 -56 0 -57 -35 -117 -154 -266 -25 -31 -28 -40 -16 -47 19 -11
50 8 158 95 l87 71 12 64 c6 36 14 94 18 130 3 36 8 72 10 80 2 8 6 45 10 82
3 37 8 77 10 90 2 13 6 55 10 93 4 39 9 78 11 88 1 9 6 54 9 99 3 45 8 84 10
87 2 4 6 42 10 86 3 44 8 91 10 105 2 14 6 56 10 94 3 38 7 79 10 90 2 12 7
54 10 95 3 40 8 77 11 82 8 14 -26 10 -91 -10 -33 -11 -78 -22 -100 -25 -22
-4 -69 -11 -105 -17 -36 -6 -83 -13 -105 -15 -22 -3 -51 -7 -65 -10 -66 -11
-322 -18 -690 -19 -471 0 -599 6 -810 40 -14 2 -45 7 -70 10 -25 3 -87 17
-138 31 -52 13 -98 24 -103 24 -5 0 -7 -15 -4 -32z"/>
<path d="M1730 1195 c0 -4 29 -58 59 -107 73 -120 80 -136 85 -204 11 -115 15
-175 21 -274 3 -52 7 -115 10 -140 2 -25 7 -88 11 -140 3 -52 8 -106 9 -120 2
-14 3 -37 4 -52 1 -38 64 -82 150 -107 132 -38 210 -46 481 -46 230 0 303 4
391 24 24 5 56 12 70 14 45 9 126 48 150 73 12 13 23 39 25 57 1 17 5 88 8
157 4 69 9 154 11 190 2 36 6 110 10 165 17 297 8 257 81 388 37 65 64 120 62
122 -2 2 -46 -9 -98 -24 -52 -16 -113 -31 -135 -35 -22 -3 -50 -7 -61 -10 -22
-4 -71 -12 -134 -21 -19 -2 -51 -7 -70 -9 -170 -24 -474 -24 -630 -1 -14 2
-50 7 -80 10 -93 11 -253 44 -340 70 -91 27 -90 27 -90 20z"/>
</g>
</svg>
